<svg width="128" height="51" viewBox="0 0 128 51" fill="none" xmlns="http://www.w3.org/2000/svg">
<path d="M23.2789 7.03738C23.5515 7.03738 23.7954 7.20676 23.8907 7.46217L31.7418 28.5064C31.901 28.9332 31.5854 29.3878 31.1299 29.3878H26.5136C26.2369 29.3878 25.9902 29.2134 25.8979 28.9526L24.764 25.7479C24.6717 25.487 24.425 25.3127 24.1483 25.3127H17.357C17.0819 25.3127 16.8363 25.485 16.7428 25.7437L15.5811 28.9567C15.4876 29.2154 15.2421 29.3878 14.967 29.3878H10.4113C9.95548 29.3878 9.63986 28.9326 9.79973 28.5057L17.6802 7.46142C17.7758 7.2064 18.0195 7.03738 18.2918 7.03738H23.2789ZM22.3976 21.1122C22.8404 21.1122 23.1549 20.6809 23.0194 20.2593L21.3998 15.2182C21.2063 14.616 20.3555 14.613 20.1577 15.2136L18.4976 20.2548C18.3584 20.6773 18.6731 21.1122 19.1178 21.1122H22.3976Z" fill="white"/>
<path d="M34.4509 29.3877C34.0901 29.3877 33.7979 29.0954 33.7979 28.7347V7.72179C33.7979 7.3611 34.0901 7.06873 34.4509 7.06873H45.0201C47.1308 7.06873 48.8549 7.51803 50.1923 8.41664C51.5507 9.31526 52.2299 10.7363 52.2299 12.6798C52.2299 13.7456 51.9896 14.6338 51.5089 15.3443C51.2663 15.703 50.9597 16.0378 50.5891 16.3486C50.1483 16.7184 50.2168 17.5214 50.7151 17.8089C52.4562 18.8135 53.327 20.437 53.327 22.6795C53.327 24.7902 52.5956 26.462 51.1327 27.695C50.5267 28.1966 49.8371 28.5832 49.0638 28.8548C48.2906 29.1056 47.6114 29.2624 47.0263 29.3251C46.4412 29.3668 45.647 29.3877 44.6439 29.3877H34.4509ZM39.503 15.1928C39.503 15.5535 39.7953 15.8459 40.1561 15.8459H43.6722C45.5948 15.8459 46.5561 15.1249 46.5561 13.6829C46.5561 12.847 46.2844 12.2828 45.7411 11.9902C45.1977 11.6767 44.4558 11.52 43.5154 11.52H40.1561C39.7953 11.52 39.503 11.8124 39.503 12.1731V15.1928ZM39.503 24.1267C39.503 24.4874 39.7953 24.7797 40.1561 24.7797H44.111C45.1559 24.7797 45.9709 24.6126 46.5561 24.2782C47.1412 23.9229 47.4338 23.2437 47.4338 22.2406C47.4338 21.2584 47.1203 20.5897 46.4934 20.2344C45.8665 19.8583 45.0201 19.6702 43.9543 19.6702H40.1561C39.7953 19.6702 39.503 19.9626 39.503 20.3233V24.1267Z" fill="white"/>
<path d="M75.3727 7.06873C75.9458 7.06873 76.241 7.75431 75.8472 8.17064L68.9766 15.4313C68.7654 15.6549 68.7386 15.9958 68.9126 16.2496L77.2228 28.3653C77.5203 28.7987 77.2098 29.3877 76.6844 29.3877H71.04C70.8176 29.3877 70.6106 29.2746 70.4904 29.0876L65.1112 20.7108C64.8832 20.3559 64.3837 20.3069 64.0911 20.611L62.4646 22.3018C62.3474 22.4235 62.2821 22.5857 62.2821 22.7545V28.7347C62.2821 29.0954 61.9898 29.3877 61.629 29.3877H57.1673C56.8065 29.3877 56.5143 29.0954 56.5143 28.7347V7.72179C56.5143 7.3611 56.8065 7.06873 57.1673 7.06873H61.5663C61.9272 7.06873 62.2194 7.3611 62.2194 7.72179V13.857C62.2194 14.46 62.9668 14.7409 63.3639 14.287L69.4847 7.29175C69.6088 7.15003 69.7881 7.06873 69.9765 7.06873H75.3727Z" fill="white"/>
<path d="M115.614 29.4694H110.961C110.319 29.4694 109.798 28.9345 109.798 28.2755V8.37758C109.798 7.71854 110.319 7.18369 110.961 7.18369H115.614C116.256 7.18369 116.777 7.71854 116.777 8.37758V28.2755C116.777 28.9345 116.256 29.4694 115.614 29.4694Z" fill="#5EB8FF"/>
<path d="M106.308 29.4694H101.655C101.013 29.4694 100.491 28.9277 100.491 28.2602V11.3316C100.491 10.6642 101.013 10.1224 101.655 10.1224H106.308C106.95 10.1224 107.471 10.6642 107.471 11.3316V28.2602C107.471 28.9277 106.95 29.4694 106.308 29.4694Z" fill="#5EB8FF"/>
<path d="M97.0015 29.4694H92.3484C91.7064 29.4694 91.1853 28.9178 91.1853 28.2381V15.9252C91.1853 15.2455 91.7064 14.6939 92.3484 14.6939H97.0015C97.6437 14.6939 98.1649 15.2455 98.1649 15.9252V28.2381C98.1649 28.9178 97.6437 29.4694 97.0015 29.4694Z" fill="#5EB8FF"/>
<path d="M87.6953 29.4694H83.0423C82.4003 29.4694 81.8792 28.8797 81.8792 28.1531V20.2551C81.8792 19.5285 82.4003 18.9388 83.0423 18.9388H87.6953C88.3376 18.9388 88.8588 19.5285 88.8588 20.2551V28.1531C88.8588 28.8797 88.3376 29.4694 87.6953 29.4694Z" fill="#5EB8FF"/>
<path d="M115.716 31.3469H10.573C10.032 31.3469 9.59338 31.7855 9.59338 32.3265C9.59338 32.8675 10.032 33.3061 10.573 33.3061H115.716C116.257 33.3061 116.695 32.8675 116.695 32.3265C116.695 31.7855 116.257 31.3469 115.716 31.3469Z" fill="#5EB8FF"/>
<path d="M17.9216 39.5216C17.9216 40.7432 17.5617 41.7561 16.8418 42.56C16.1295 43.3568 15.1748 43.7551 13.9776 43.7551C12.7425 43.7551 11.7574 43.3607 11.0224 42.5714C10.2874 41.7825 9.91992 40.7621 9.91992 39.5102C9.91992 38.2887 10.2912 37.2758 11.0338 36.4715C11.784 35.6673 12.7576 35.2653 13.9549 35.2653C15.1596 35.2653 16.1219 35.6523 16.8418 36.4261C17.5617 37.1925 17.9216 38.2243 17.9216 39.5216ZM15.762 39.4534C15.762 38.687 15.5991 38.0839 15.2733 37.6438C14.9475 37.2039 14.5004 36.9839 13.9321 36.9839C13.3638 36.9839 12.913 37.2114 12.5796 37.6666C12.2462 38.1143 12.0795 38.7213 12.0795 39.4874C12.0795 40.2766 12.2424 40.8947 12.5682 41.3424C12.9016 41.7901 13.36 42.0141 13.9435 42.0141C14.5194 42.0141 14.9664 41.7901 15.2847 41.3424C15.6029 40.8947 15.762 40.2652 15.762 39.4534Z" fill="white"/>
<path d="M25.7253 35.4586C25.9056 35.4586 26.0518 35.6049 26.0518 35.7851V43.2352C26.0518 43.4155 25.9056 43.5618 25.7253 43.5618H24.2529C24.0726 43.5618 23.9264 43.4155 23.9264 43.2352V37.5833C23.9264 37.4031 23.7802 37.2568 23.5999 37.2568H21.5137C21.3334 37.2568 21.1872 37.4031 21.1872 37.5833V43.2352C21.1872 43.4155 21.041 43.5618 20.8607 43.5618H19.3883C19.208 43.5618 19.0618 43.4155 19.0618 43.2352V35.7851C19.0618 35.6049 19.208 35.4586 19.3883 35.4586H25.7253Z" fill="white"/>
<path d="M33.6496 35.4586C33.8302 35.4586 33.9761 35.6049 33.9761 35.7851V36.8392C33.9761 37.0197 33.8302 37.1657 33.6496 37.1657H29.9269C29.7465 37.1657 29.6003 37.312 29.6003 37.4922V38.239C29.6003 38.4196 29.7465 38.5655 29.9269 38.5655H33.2747C33.455 38.5655 33.6013 38.7118 33.6013 38.8921V39.8778C33.6013 40.0581 33.455 40.2044 33.2747 40.2044H29.9269C29.7465 40.2044 29.6003 40.3507 29.6003 40.5309V41.4599C29.6003 41.6401 29.7465 41.7864 29.9269 41.7864H33.7521C33.9324 41.7864 34.0787 41.9324 34.0787 42.1129V43.2352C34.0787 43.4155 33.9324 43.5618 33.7521 43.5618H27.8242C27.6438 43.5618 27.4977 43.4155 27.4977 43.2352V35.7851C27.4977 35.6049 27.6438 35.4586 27.8242 35.4586H33.6496Z" fill="white"/>
<path d="M35.6049 43.5618C35.4247 43.5618 35.2784 43.4155 35.2784 43.2352V35.7851C35.2784 35.6049 35.4247 35.4586 35.6049 35.4586H38.8359C39.8286 35.4586 40.609 35.6751 41.1775 36.1074C41.7456 36.5397 42.0297 37.2339 42.0297 38.19C42.0297 39.07 41.7721 39.7338 41.2568 40.1815C40.7415 40.6292 40.0483 40.8532 39.1768 40.8532H37.7192C37.5386 40.8532 37.3927 40.9992 37.3927 41.1797V43.2352C37.3927 43.4155 37.2464 43.5618 37.0661 43.5618H35.6049ZM37.3927 38.8878C37.3927 39.0681 37.5386 39.2143 37.7192 39.2143H38.5858C38.8056 39.2143 38.9838 39.2068 39.12 39.1915C39.2565 39.1686 39.3966 39.1272 39.5406 39.0664C39.6921 39.0057 39.8021 38.9071 39.8704 38.7706C39.9461 38.6263 39.984 38.4405 39.984 38.2129C39.984 37.841 39.8779 37.5794 39.6656 37.4276C39.4534 37.2682 39.1504 37.1885 38.7566 37.1885H37.7192C37.5386 37.1885 37.3927 37.3348 37.3927 37.5151V38.8878Z" fill="white"/>
<path d="M46.3307 35.4475C46.4669 35.4475 46.589 35.5321 46.6367 35.6598L49.4168 43.121C49.4961 43.3345 49.3384 43.5618 49.1105 43.5618H47.6294C47.4909 43.5618 47.3678 43.4743 47.3214 43.344L46.9528 42.2998C46.9064 42.1695 46.783 42.0823 46.6449 42.0823H44.3089C44.1714 42.0823 44.0486 42.1685 44.0019 42.2978L43.6235 43.346C43.5765 43.4753 43.4537 43.5618 43.3162 43.5618H41.8566C41.6287 43.5618 41.471 43.3342 41.551 43.1207L44.3412 35.6594C44.3889 35.5321 44.511 35.4475 44.6472 35.4475H46.3307ZM45.9507 40.5571C46.1721 40.5571 46.3291 40.3416 46.2615 40.1309L45.7962 38.6805C45.6996 38.3794 45.2738 38.3778 45.1752 38.6782L44.6981 40.1287C44.6286 40.3399 44.7859 40.5571 45.0083 40.5571H45.9507Z" fill="white"/>
<path d="M55.2702 35.4586C55.4508 35.4586 55.5968 35.6049 55.5968 35.7851V36.9303C55.5968 37.1105 55.4508 37.2568 55.2702 37.2568H53.5253C53.345 37.2568 53.1987 37.4031 53.1987 37.5833V43.2352C53.1987 43.4155 53.0525 43.5618 52.8722 43.5618H51.3884C51.2082 43.5618 51.0619 43.4155 51.0619 43.2352V37.5833C51.0619 37.4031 50.9156 37.2568 50.7354 37.2568H48.9901C48.8098 37.2568 48.6635 37.1105 48.6635 36.9303V35.7851C48.6635 35.6049 48.8098 35.4586 48.9901 35.4586H55.2702Z" fill="white"/>
<path d="M64.0402 39.5216C64.0402 40.7432 63.6803 41.7561 62.9603 42.56C62.2482 43.3568 61.2934 43.7551 60.0963 43.7551C58.8611 43.7551 57.8759 43.3607 57.1409 42.5714C56.4059 41.7825 56.0385 40.7621 56.0385 39.5102C56.0385 38.2887 56.4098 37.2758 57.1523 36.4715C57.9027 35.6673 58.8761 35.2653 60.0735 35.2653C61.2784 35.2653 62.2407 35.6523 62.9603 36.4261C63.6803 37.1925 64.0402 38.2243 64.0402 39.5216ZM61.8805 39.4534C61.8805 38.687 61.7176 38.0839 61.392 37.6438C61.0661 37.2039 60.6191 36.9839 60.0506 36.9839C59.4825 36.9839 59.0315 37.2114 58.6981 37.6666C58.3647 38.1143 58.1982 38.7213 58.1982 39.4874C58.1982 40.2766 58.3608 40.8947 58.6867 41.3424C59.0201 41.7901 59.4785 42.0141 60.0621 42.0141C60.6381 42.0141 61.0851 41.7901 61.4031 41.3424C61.7215 40.8947 61.8805 40.2652 61.8805 39.4534Z" fill="white"/>
<path d="M65.5184 43.5618C65.3378 43.5618 65.1918 43.4155 65.1918 43.2352V35.7851C65.1918 35.6049 65.3378 35.4586 65.5184 35.4586H68.7494C69.742 35.4586 70.5224 35.6751 71.0906 36.1074C71.6591 36.5397 71.9432 37.2339 71.9432 38.19C71.9432 39.07 71.6855 39.7338 71.1703 40.1815C70.655 40.6292 69.9618 40.8532 69.0903 40.8532H67.6323C67.4521 40.8532 67.3058 40.9992 67.3058 41.1797V43.2352C67.3058 43.4155 67.1595 43.5618 66.9793 43.5618H65.5184ZM67.3058 38.8878C67.3058 39.0681 67.4521 39.2143 67.6323 39.2143H68.4993C68.719 39.2143 68.897 39.2068 69.0335 39.1915C69.17 39.1686 69.31 39.1272 69.454 39.0664C69.6055 39.0057 69.7153 38.9071 69.7835 38.7706C69.8593 38.6263 69.8971 38.4405 69.8971 38.2129C69.8971 37.841 69.791 37.5794 69.5791 37.4276C69.3669 37.2682 69.0638 37.1885 68.6697 37.1885H67.6323C67.4521 37.1885 67.3058 37.3348 67.3058 37.5151V38.8878Z" fill="white"/>
<path d="M81.9154 40.6753C81.953 40.5176 82.0882 40.3977 82.2501 40.3977H83.7361C83.9193 40.3977 84.0692 40.5492 84.0513 40.7318C84.0359 40.8911 84.0121 41.0263 83.9797 41.1376C83.934 41.312 83.8393 41.5435 83.6953 41.8319C83.0664 43.1141 81.9526 43.7551 80.3539 43.7551C79.1187 43.7551 78.1339 43.3568 77.3988 42.56C76.6713 41.7561 76.3076 40.7318 76.3076 39.4874C76.3076 38.2433 76.6864 37.2304 77.4442 36.449C78.2021 35.6598 79.1833 35.2653 80.3879 35.2653C81.3352 35.2653 82.161 35.5422 82.8656 36.096C83.4795 36.5786 83.8521 37.202 83.9827 37.9664C84.015 38.1535 83.8635 38.3151 83.6738 38.3151H82.2093C82.0552 38.3151 81.9249 38.2064 81.8759 38.0604C81.6467 37.3806 81.1357 37.0407 80.3425 37.0407C79.7665 37.0407 79.3045 37.2683 78.9557 37.7234C78.6149 38.1711 78.4444 38.7742 78.4444 39.5331C78.4444 40.2691 78.6149 40.8568 78.9557 41.297C79.3045 41.7368 79.7665 41.9569 80.3425 41.9569C81.1876 41.9569 81.712 41.5298 81.9154 40.6753Z" fill="white"/>
<path d="M85.4972 43.5618C85.3169 43.5618 85.1707 43.4155 85.1707 43.2352V35.7851C85.1707 35.6049 85.3169 35.4586 85.4972 35.4586H89.2399C90.0049 35.4586 90.6302 35.6219 91.1151 35.9481C91.6076 36.2743 91.8538 36.7902 91.8538 37.4958C91.8538 37.8827 91.7669 38.2054 91.5925 38.4633C91.5403 38.5401 91.4802 38.6142 91.412 38.685C91.2128 38.8924 91.2471 39.3038 91.4809 39.4713C91.9948 39.84 92.2518 40.3915 92.2518 41.1262C92.2518 41.8925 91.9867 42.4996 91.456 42.9469C91.2363 43.1291 90.9862 43.2695 90.706 43.3681C90.4255 43.4592 90.1793 43.516 89.9671 43.5389C89.7551 43.5539 89.4671 43.5618 89.1034 43.5618H85.4972ZM87.2392 38.3187C87.2392 38.4989 87.3855 38.6452 87.5658 38.6452H88.7511C89.4482 38.6452 89.7966 38.3836 89.7966 37.8599C89.7966 37.5565 89.698 37.3518 89.5011 37.2454C89.3042 37.1317 89.0351 37.0749 88.6942 37.0749H87.5658C87.3855 37.0749 87.2392 37.2209 87.2392 37.4014V38.3187ZM87.2392 41.5621C87.2392 41.7423 87.3855 41.8886 87.5658 41.8886H88.9101C89.2889 41.8886 89.5844 41.8279 89.7966 41.7067C90.0089 41.5778 90.115 41.3309 90.115 40.9668C90.115 40.6103 90.0014 40.3676 89.7741 40.2387C89.5465 40.1018 89.2399 40.0336 88.8533 40.0336H87.5658C87.3855 40.0336 87.2392 40.1799 87.2392 40.3601V41.5621Z" fill="white"/>
<path d="M100.363 43.2352C100.363 43.4155 100.217 43.5618 100.037 43.5618H98.5871C98.4069 43.5618 98.2606 43.4155 98.2606 43.2352V40.895C98.2606 40.7147 98.1143 40.5685 97.9341 40.5685H97.6787C97.5732 40.5685 97.474 40.6194 97.4129 40.7053L95.4714 43.4249C95.41 43.5105 95.311 43.5618 95.2056 43.5618H93.3767C93.1021 43.5618 92.9499 43.2427 93.1233 43.0292L94.8836 40.8601C95.0332 40.6756 94.9414 40.3961 94.7266 40.2948C94.387 40.1352 94.099 39.9079 93.8619 39.6127C93.521 39.1879 93.3506 38.6605 93.3506 38.0307C93.3506 37.2039 93.6157 36.5701 94.1463 36.1303C94.6766 35.6826 95.3395 35.4586 96.1352 35.4586H100.037C100.217 35.4586 100.363 35.6049 100.363 35.7851V43.2352ZM97.9341 39.0436C98.1143 39.0436 98.2606 38.8973 98.2606 38.717V37.424C98.2606 37.2437 98.1143 37.0974 97.9341 37.0974H96.7148C95.8511 37.0974 95.4191 37.4125 95.4191 38.0421C95.4191 38.4365 95.5292 38.702 95.7486 38.8388C95.9762 38.9753 96.2906 39.0436 96.6923 39.0436H97.9341Z" fill="white"/>
<path d="M108.333 40.9897C108.333 41.8015 108.011 42.4653 107.367 42.9812C106.731 43.4972 105.931 43.7551 104.969 43.7551C103.848 43.7551 102.968 43.5011 102.332 42.9927C101.774 42.5473 101.455 41.9445 101.374 41.1843C101.355 41.0031 101.504 40.8532 101.687 40.8532H103.153C103.334 40.8532 103.475 41.0008 103.508 41.1781C103.624 41.8113 104.107 42.1277 104.957 42.1277C105.314 42.1277 105.606 42.0366 105.833 41.8547C106.06 41.6725 106.174 41.4374 106.174 41.1491C106.174 40.8229 106.053 40.5685 105.81 40.3866C105.575 40.2044 105.261 40.1133 104.867 40.1133H104.443C104.263 40.1133 104.117 39.967 104.117 39.7868V38.993C104.117 38.8003 104.282 38.6488 104.475 38.6537C104.554 38.6557 104.639 38.6567 104.73 38.6567C105.155 38.6567 105.465 38.5731 105.662 38.4062C105.867 38.2319 105.969 38.0118 105.969 37.7463C105.969 37.5187 105.871 37.3176 105.673 37.1432C105.477 36.9685 105.223 36.8813 104.912 36.8813C104.216 36.8813 103.795 37.1115 103.648 37.5723C103.596 37.7359 103.461 37.8714 103.289 37.8714H101.914C101.732 37.8714 101.582 37.7212 101.604 37.5396C101.683 36.865 101.971 36.3344 102.468 35.9481C103.044 35.4929 103.844 35.2653 104.867 35.2653C105.836 35.2653 106.606 35.4665 107.174 35.8684C107.742 36.2707 108.026 36.8206 108.026 37.5187C108.026 37.8599 107.913 38.1901 107.685 38.5087C107.515 38.7419 107.578 39.4286 107.785 39.6297C107.821 39.664 107.856 39.6999 107.89 39.7378C108.185 40.064 108.333 40.4813 108.333 40.9897Z" fill="white"/>
<path d="M116.042 35.4586C116.223 35.4586 116.369 35.6049 116.369 35.7851V43.2352C116.369 43.4155 116.223 43.5618 116.042 43.5618H114.647C114.463 43.5618 114.316 43.4099 114.321 43.2261L114.42 39.6072C114.429 39.2597 113.961 39.1399 113.803 39.4494L111.788 43.3838C111.733 43.4929 111.62 43.5618 111.498 43.5618H109.705C109.525 43.5618 109.379 43.4155 109.379 43.2352V35.7851C109.379 35.6049 109.525 35.4586 109.705 35.4586H111.105C111.287 35.4586 111.434 35.6078 111.431 35.79L111.377 39.4537C111.372 39.7992 111.837 39.9151 111.994 39.6075L114.027 35.6365C114.083 35.5275 114.196 35.4586 114.318 35.4586H116.042Z" fill="white"/>
</svg>
