<svg width="128" height="51" fill="none" xmlns="http://www.w3.org/2000/svg"><path d="M23.279 7.037c.273 0 .516.17.612.425l7.85 21.044a.653.653 0 01-.611.882h-4.616a.653.653 0 01-.616-.435l-1.134-3.205a.653.653 0 00-.616-.435h-6.791a.653.653 0 00-.614.43l-1.162 3.214a.653.653 0 01-.614.43h-4.556a.653.653 0 01-.611-.881L17.68 7.46a.653.653 0 01.612-.424h4.987zm-.881 14.075a.653.653 0 00.621-.853l-1.62-5.04c-.193-.603-1.044-.606-1.241-.005l-1.66 5.04a.653.653 0 00.62.858h3.28zM34.45 29.388a.653.653 0 01-.652-.653V7.722c0-.36.292-.653.653-.653h10.57c2.11 0 3.834.449 5.171 1.348 1.359.898 2.038 2.32 2.038 4.263 0 1.066-.24 1.954-.721 2.664-.243.359-.55.694-.92 1.005-.44.37-.372 1.172.126 1.46 1.741 1.005 2.612 2.628 2.612 4.87 0 2.111-.731 3.783-2.194 5.016a6.691 6.691 0 01-2.07 1.16c-.772.25-1.452.407-2.037.47a35.34 35.34 0 01-2.382.063H34.45zm5.053-14.195c0 .36.292.653.653.653h3.516c1.923 0 2.884-.721 2.884-2.163 0-.836-.272-1.4-.815-1.693-.543-.313-1.285-.47-2.226-.47h-3.359a.653.653 0 00-.653.653v3.02zm0 8.934c0 .36.292.653.653.653h3.955c1.045 0 1.86-.167 2.445-.502.585-.355.878-1.034.878-2.037 0-.983-.314-1.651-.94-2.007-.627-.376-1.474-.564-2.54-.564h-3.798a.653.653 0 00-.653.653v3.804zM75.373 7.069c.573 0 .868.685.474 1.102l-6.87 7.26a.654.654 0 00-.064.819l8.31 12.115a.653.653 0 01-.539 1.023H71.04a.653.653 0 01-.55-.3l-5.379-8.377a.653.653 0 00-1.02-.1l-1.626 1.69a.652.652 0 00-.183.454v5.98c0 .36-.292.653-.653.653h-4.462a.653.653 0 01-.653-.653V7.722c0-.36.292-.653.653-.653h4.4c.36 0 .652.292.652.653v6.135c0 .603.748.884 1.145.43l6.12-6.995a.654.654 0 01.493-.223h5.396z" fill="#fff"/><path d="M115.614 29.47h-4.653c-.642 0-1.163-.535-1.163-1.194V8.378c0-.66.521-1.194 1.163-1.194h4.653c.642 0 1.163.535 1.163 1.194v19.898c0 .659-.521 1.193-1.163 1.193zM106.308 29.47h-4.653c-.642 0-1.164-.542-1.164-1.21V11.332c0-.668.522-1.21 1.164-1.21h4.653c.642 0 1.163.542 1.163 1.21V28.26c0 .668-.521 1.21-1.163 1.21zM97.001 29.47h-4.653c-.642 0-1.163-.552-1.163-1.232V15.925c0-.68.521-1.231 1.163-1.231h4.653c.643 0 1.164.551 1.164 1.231v12.313c0 .68-.521 1.231-1.164 1.231zM87.695 29.47h-4.653c-.642 0-1.163-.59-1.163-1.317v-7.898c0-.726.521-1.316 1.163-1.316h4.653c.643 0 1.164.59 1.164 1.316v7.898c0 .727-.521 1.316-1.164 1.316zM115.716 31.347H10.573a.98.98 0 000 1.96h105.143a.98.98 0 000-1.96z" fill="#5EB8FF"/><path d="M17.922 39.522c0 1.221-.36 2.234-1.08 3.038-.712.797-1.667 1.195-2.864 1.195-1.236 0-2.22-.394-2.956-1.184-.735-.788-1.102-1.809-1.102-3.06 0-1.222.371-2.235 1.114-3.04.75-.804 1.724-1.206 2.92-1.206 1.206 0 2.168.387 2.888 1.161.72.767 1.08 1.798 1.08 3.096zm-2.16-.069c0-.766-.163-1.37-.489-1.81-.325-.44-.773-.66-1.34-.66a1.59 1.59 0 00-1.353.684c-.334.447-.5 1.054-.5 1.82 0 .79.162 1.408.488 1.855.334.448.792.672 1.376.672.575 0 1.022-.224 1.34-.672.319-.447.478-1.077.478-1.889zM25.725 35.459c.18 0 .327.146.327.326v7.45c0 .18-.146.327-.327.327h-1.472a.327.327 0 01-.327-.327v-5.652a.327.327 0 00-.326-.326h-2.086a.327.327 0 00-.327.326v5.652c0 .18-.146.327-.326.327h-1.473a.327.327 0 01-.326-.327v-7.45c0-.18.146-.326.326-.326h6.337zM33.65 35.459c.18 0 .326.146.326.326v1.054c0 .18-.146.327-.326.327h-3.723a.327.327 0 00-.327.326v.747c0 .18.146.327.327.327h3.348c.18 0 .326.146.326.326v.986c0 .18-.146.326-.326.326h-3.348a.327.327 0 00-.327.327v.929c0 .18.146.326.327.326h3.825c.18 0 .327.146.327.327v1.122c0 .18-.147.327-.327.327h-5.928a.327.327 0 01-.326-.327v-7.45c0-.18.146-.326.326-.326h5.826zM35.605 43.562a.327.327 0 01-.327-.327v-7.45c0-.18.147-.326.327-.326h3.23c.994 0 1.774.216 2.343.648.568.433.852 1.127.852 2.083 0 .88-.258 1.544-.773 1.992-.515.447-1.209.671-2.08.671h-1.458a.326.326 0 00-.326.327v2.055c0 .18-.147.327-.327.327h-1.461zm1.788-4.674c0 .18.146.326.326.326h.867c.22 0 .398-.007.534-.023.137-.022.277-.064.42-.125a.605.605 0 00.33-.295c.076-.145.114-.33.114-.558 0-.372-.106-.634-.318-.785-.213-.16-.516-.24-.91-.24H37.72a.326.326 0 00-.326.327v1.373zM46.33 35.447c.137 0 .259.085.307.213l2.78 7.461a.327.327 0 01-.306.44h-1.482a.327.327 0 01-.308-.217l-.368-1.044a.327.327 0 00-.308-.218h-2.336a.326.326 0 00-.307.216l-.379 1.048a.327.327 0 01-.307.216h-1.46a.326.326 0 01-.305-.441l2.79-7.462a.327.327 0 01.306-.212h1.684zm-.38 5.11a.326.326 0 00.311-.426l-.465-1.45a.326.326 0 00-.62-.003l-.478 1.45a.326.326 0 00.31.43h.943zM55.27 35.459c.18 0 .327.146.327.326v1.145c0 .18-.146.327-.327.327h-1.745a.327.327 0 00-.326.326v5.652c0 .18-.146.327-.327.327h-1.484a.327.327 0 01-.326-.327v-5.652a.327.327 0 00-.327-.326H48.99a.327.327 0 01-.327-.327v-1.145c0-.18.147-.326.327-.326h6.28zM64.04 39.522c0 1.221-.36 2.234-1.08 3.038-.712.797-1.667 1.195-2.864 1.195-1.235 0-2.22-.394-2.955-1.184-.735-.788-1.102-1.809-1.102-3.06 0-1.222.37-2.235 1.113-3.04.75-.804 1.724-1.206 2.922-1.206 1.204 0 2.167.387 2.886 1.161.72.767 1.08 1.798 1.08 3.096zm-2.16-.069c0-.766-.162-1.37-.488-1.81-.326-.44-.773-.66-1.341-.66a1.59 1.59 0 00-1.353.684c-.333.447-.5 1.054-.5 1.82 0 .79.163 1.408.489 1.855.333.448.791.672 1.375.672.576 0 1.023-.224 1.341-.672.319-.447.477-1.077.477-1.889zM65.518 43.562a.327.327 0 01-.326-.327v-7.45c0-.18.146-.326.326-.326h3.231c.993 0 1.773.216 2.342.648.568.433.852 1.127.852 2.083 0 .88-.257 1.544-.773 1.992-.515.447-1.208.671-2.08.671h-1.458a.326.326 0 00-.326.327v2.055c0 .18-.147.327-.327.327h-1.46zm1.788-4.674c0 .18.146.326.326.326h.867c.22 0 .398-.007.535-.023.136-.022.276-.064.42-.125a.604.604 0 00.33-.295c.075-.145.113-.33.113-.558 0-.372-.106-.634-.318-.785-.212-.16-.515-.24-.91-.24h-1.037a.327.327 0 00-.326.327v1.373zM81.915 40.675a.352.352 0 01.335-.277h1.486a.31.31 0 01.315.334c-.015.16-.039.294-.071.406-.046.174-.14.406-.285.694-.629 1.282-1.742 1.923-3.341 1.923-1.235 0-2.22-.398-2.955-1.195-.728-.804-1.091-1.828-1.091-3.073 0-1.244.378-2.257 1.136-3.038.758-.79 1.74-1.184 2.944-1.184.947 0 1.773.277 2.478.831a2.933 2.933 0 011.117 1.87c.032.188-.12.35-.31.35H82.21a.36.36 0 01-.333-.256c-.23-.68-.74-1.02-1.534-1.02-.576 0-1.037.228-1.386.683-.341.448-.512 1.051-.512 1.81 0 .736.17 1.324.512 1.764.349.44.81.66 1.386.66.846 0 1.37-.427 1.573-1.282zM85.497 43.562a.327.327 0 01-.326-.327v-7.45c0-.18.146-.326.326-.326h3.743c.765 0 1.39.163 1.875.49.493.325.739.841.739 1.547 0 .387-.087.71-.261.967-.053.077-.113.151-.181.222-.2.207-.165.619.069.786.514.369.77.92.77 1.655 0 .767-.264 1.374-.795 1.82-.22.183-.47.324-.75.422a3.74 3.74 0 01-.739.17c-.212.016-.5.024-.864.024h-3.606zm1.742-5.243c0 .18.146.326.327.326h1.185c.697 0 1.046-.261 1.046-.785 0-.303-.099-.508-.296-.615-.197-.113-.466-.17-.807-.17h-1.128a.326.326 0 00-.327.326v.918zm0 3.243c0 .18.146.327.327.327h1.344c.379 0 .674-.061.887-.182.212-.13.318-.376.318-.74 0-.357-.114-.6-.34-.728-.229-.137-.535-.205-.922-.205h-1.287a.327.327 0 00-.327.326v1.202zM100.363 43.235c0 .18-.146.327-.326.327h-1.45a.327.327 0 01-.326-.327v-2.34a.327.327 0 00-.327-.327h-.255a.326.326 0 00-.266.137l-1.942 2.72a.328.328 0 01-.265.137h-1.83a.327.327 0 01-.253-.533l1.76-2.169c.15-.184.058-.464-.156-.565a2.411 2.411 0 01-.865-.682c-.341-.425-.511-.953-.511-1.582 0-.827.265-1.46.795-1.9.53-.448 1.194-.672 1.99-.672h3.901c.18 0 .326.146.326.326v7.45zm-2.429-4.191c.18 0 .327-.147.327-.327v-1.293a.327.327 0 00-.327-.327h-1.22c-.863 0-1.295.316-1.295.945 0 .395.11.66.33.797.227.136.542.205.943.205h1.242zM108.333 40.99c0 .811-.322 1.475-.966 1.991-.636.516-1.436.774-2.398.774-1.121 0-2.001-.254-2.637-.762-.558-.446-.877-1.049-.958-1.809a.306.306 0 01.313-.33h1.466c.181 0 .322.147.355.324.116.633.599.95 1.449.95.357 0 .649-.091.876-.273a.864.864 0 00.341-.706c0-.326-.121-.58-.364-.762-.235-.183-.549-.274-.943-.274h-.424a.326.326 0 01-.326-.326v-.794c0-.193.165-.344.358-.34.079.003.164.004.255.004.425 0 .735-.084.932-.25a.83.83 0 00.307-.66c0-.228-.098-.43-.296-.604-.196-.175-.45-.262-.761-.262-.696 0-1.117.23-1.264.691-.052.164-.187.3-.359.3h-1.375c-.182 0-.332-.15-.31-.332.079-.675.367-1.206.864-1.592.576-.455 1.376-.683 2.399-.683.969 0 1.739.202 2.307.603.568.403.852.953.852 1.65 0 .342-.113.672-.341.99-.17.234-.107.92.1 1.122.036.034.071.07.105.108.295.326.443.743.443 1.252zM116.042 35.459c.181 0 .327.146.327.326v7.45c0 .18-.146.327-.327.327h-1.395a.326.326 0 01-.326-.336l.099-3.619c.009-.347-.459-.467-.617-.158l-2.015 3.935a.325.325 0 01-.29.178h-1.793a.326.326 0 01-.326-.327v-7.45c0-.18.146-.326.326-.326h1.4c.182 0 .329.149.326.331l-.054 3.664c-.005.345.46.461.617.154l2.033-3.971a.328.328 0 01.291-.178h1.724z" fill="#fff"/></svg>